<?xml version="1.0" encoding="UTF-8"?>
<svg width="71px" height="29px" viewBox="0 0 71 29" version="1.1" xmlns="http://www.w3.org/2000/svg" xmlns:xlink="http://www.w3.org/1999/xlink">
    <!-- Generator: Sketch 47.1 (45422) - http://www.bohemiancoding.com/sketch -->
    <title>199元</title>
    <desc>Created with Sketch.</desc>
    <defs></defs>
    <g id="Page-1" stroke="none" stroke-width="1" fill="none" fill-rule="evenodd">
        <g id="超值-copy" transform="translate(-159.000000, -827.000000)" fill="#F54154">
            <g id="Group-4" transform="translate(0.000000, 812.000000)">
                <path d="M165.408,42 L171.6,42 L171.6,15.36 L166.956,15.36 L159.576,20.112 L159.432,20.94 L160.332,23.712 L161.124,23.712 L165.264,21.984 L165.408,21.984 L165.408,42 Z M183.984,15 C190.032,15 193.452,19.428 193.452,27.42 C193.452,37.248 189.24,42.36 181.14,42.36 C179.628,42.36 178.008,42.144 176.172,41.676 L176.856,36.888 C178.584,37.248 179.808,37.428 180.924,37.428 C184.92,37.428 186.828,35.484 187.368,30.696 C186.18,31.812 184.452,32.424 182.544,32.424 C177.792,32.424 174.768,29.256 174.768,24.36 C174.768,18.564 178.26,15 183.984,15 Z M183.984,27.996 C185.316,27.996 186.72,27.348 187.512,26.448 C187.404,21.984 186.324,20.076 183.984,20.076 C181.86,20.076 180.78,21.444 180.78,24.18 C180.78,26.808 181.788,27.996 183.984,27.996 Z M204.576,15 C210.624,15 214.044,19.428 214.044,27.42 C214.044,37.248 209.832,42.36 201.732,42.36 C200.22,42.36 198.6,42.144 196.764,41.676 L197.448,36.888 C199.176,37.248 200.4,37.428 201.516,37.428 C205.512,37.428 207.42,35.484 207.96,30.696 C206.772,31.812 205.044,32.424 203.136,32.424 C198.384,32.424 195.36,29.256 195.36,24.36 C195.36,18.564 198.852,15 204.576,15 Z M204.576,27.996 C205.908,27.996 207.312,27.348 208.104,26.448 C207.996,21.984 206.916,20.076 204.576,20.076 C202.452,20.076 201.372,21.444 201.372,24.18 C201.372,26.808 202.38,27.996 204.576,27.996 Z M216.492,35.106 L219.12,35.106 C218.814,38.148 217.986,41.172 217.464,42.81 L220.344,43.314 C220.902,41.64 221.748,38.508 222.108,35.106 L224.088,35.106 L224.088,42.882 L229.578,42.882 L229.578,39.606 L228.786,40.344 L227.04,40.344 L227.04,35.106 L229.416,35.106 L229.416,32.388 L216.492,32.388 L216.492,35.106 Z M218.076,30.282 L227.814,30.282 L227.814,27.726 L218.076,27.726 L218.076,30.282 Z" id="199元"></path>
            </g>
        </g>
    </g>
</svg>