<svg width="1024" height="1024" xmlns="http://www.w3.org/2000/svg" class="icon">

 <g>
  <title>background</title>
  <rect fill="none" id="canvas_background" height="402" width="582" y="-1" x="-1"/>
 </g>
 <g>
  <title>Layer 1</title>
  <path fill-opacity="0.5" id="svg_1" d="m766.88,435.264l-176.608,-176.64l66.72,-66.752l176.544,176.704l-66.656,66.688zm-365.44,365.696l-176.8,-176.768l0.256,0.064l320.128,-320.352l176.64,176.64l-320.288,320.416l0.064,0zm-177.44,0.96l0,-87.872l87.712,87.68l-87.68,0.192l-0.032,0zm655.072,-478.528l-176.768,-176.736a60.96,60.96 0 0 0 -45.344,-18.656a63.968,63.968 0 0 0 -45.12,18.848l-432.256,432.16a63.936,63.936 0 0 0 -17.92,54.368c-0.768,2.688 -1.696,5.312 -1.696,8.256l0,160.288c0,35.136 28.576,63.68 63.712,63.68l160.32,0c2.88,0 5.504,-0.896 8.192,-1.632c2.976,0.416 5.952,0.832 8.96,0.832c16.416,0 32.896,-6.272 45.44,-18.816l432.16,-432.16a64,64 0 0 0 0.224,-90.432l0.096,0z" fill="#333333"/>
 </g>
</svg>