<svg width="1097" height="1024" xmlns="http://www.w3.org/2000/svg" class="icon">

 <g>
  <title>background</title>
  <rect fill="none" id="canvas_background" height="402" width="582" y="-1" x="-1"/>
 </g>
 <g>
  <title>Layer 1</title>
  <path id="svg_1" d="m352.585143,799.414857l-28.562286,28.562286a18.285714,18.285714 0 0 1 -26.294857,0l-266.276571,-266.276572a18.285714,18.285714 0 0 1 0,-26.294857l266.276571,-266.276571a18.285714,18.285714 0 0 1 26.294857,0l28.562286,28.562286a18.285714,18.285714 0 0 1 0,26.294857l-224.585143,224.585143l224.585143,224.585142a18.285714,18.285714 0 0 1 0,26.294858l0,-0.036572zm337.700571,-609.682285l-213.138285,737.718857a18.139429,18.139429 0 0 1 -22.272,12.580572l-35.437715,-9.728a18.505143,18.505143 0 0 1 -12.580571,-22.857143l213.138286,-737.755429a18.139429,18.139429 0 0 1 22.272,-12.580572l35.437714,9.728a18.505143,18.505143 0 0 1 12.580571,22.857143l0,0.036572zm375.442286,372.004571l-266.276571,266.24a18.285714,18.285714 0 0 1 -26.294858,0l-28.562285,-28.562286a18.285714,18.285714 0 0 1 0,-26.294857l224.585143,-224.585143l-224.585143,-224.585143a18.285714,18.285714 0 0 1 0,-26.294857l28.562285,-28.562286a18.285714,18.285714 0 0 1 26.294858,0l266.276571,266.276572a18.285714,18.285714 0 0 1 0,26.294857l0,0.073143z" fill="#ffffff"/>
 </g>
</svg>