<svg width="13" height="13" xmlns="http://www.w3.org/2000/svg">
 <!-- Generator: Sketch 3.3.2 (12043) - http://www.bohemiancoding.com/sketch -->
 <title>theme-sun-green</title>
 <desc>Created with Sketch.</desc>

 <g>
  <title>background</title>
  <rect fill="none" id="canvas_background" height="402" width="582" y="-1" x="-1"/>
 </g>
 <g>
  <title>Layer 1</title>
  <g fill-rule="evenodd" fill="none" id="Icons">
   <g fill="#52996B" id="theme-sun-green">
    <path fill="#ffa226" id="Imported-Layers" d="m0,5.733l2.278,0l0,0.684l-2.278,0l0,-0.684zm2.431,-3.987l1.29,1.253l-0.455,0.456l-1.291,-1.291l0.456,-0.418l0,0zm-0.456,7.974l1.291,-1.291l0.417,0.455l-1.252,1.291l-0.456,-0.455l0,0zm6.151,-1.595c-0.557,0.556 -1.241,0.836 -2.051,0.836c-0.81,0 -1.493,-0.28 -2.05,-0.836c-0.557,-0.556 -0.835,-1.239 -0.835,-2.05c0,-0.811 0.278,-1.494 0.835,-2.05c0.557,-0.557 1.24,-0.836 2.05,-0.836c0.81,0 1.494,0.279 2.051,0.836c0.556,0.556 0.835,1.239 0.835,2.05c0,0.811 -0.279,1.494 -0.835,2.05l0,0zm-2.392,-8.125l0.683,0l0,2.127l-0.683,0l0,-2.127zm0,9.872l0.683,0l0,2.278l-0.683,0l0,-2.278zm2.962,-6.835l1.253,-1.291l0.455,0.456l-1.291,1.253l-0.417,-0.418l0,0zm0.417,5.392l1.291,1.291l-0.455,0.455l-1.253,-1.291l0.417,-0.455l0,0zm0.911,-2.696l2.126,0l0,0.684l-2.126,0l0,-0.684z"/>
   </g>
  </g>
 </g>
</svg>