<svg width="1024" height="1024" xmlns="http://www.w3.org/2000/svg" class="icon">

 <g>
  <title>background</title>
  <rect fill="none" id="canvas_background" height="402" width="582" y="-1" x="-1"/>
 </g>
 <g>
  <title>Layer 1</title>
  <path id="svg_1" d="m392.32,800.192l242.912,-242.944l164.992,164.992l0.032,77.76l-407.968,0.192l0.032,0zm-168.32,-576.192l576,-0.256l0.192,407.968l-142.336,-142.336a31.968,31.968 0 0 0 -45.248,0l-310.848,310.848l-77.76,0l0,-576.224zm576.256,-64l-576.544,0a63.808,63.808 0 0 0 -63.68,63.744l0,576.512c-0.032,35.168 28.512,63.744 63.648,63.744l576.544,0a63.808,63.808 0 0 0 63.776,-63.744l0,-576.512a63.84,63.84 0 0 0 -63.744,-63.744zm-384.256,224a31.68,31.68 0 0 1 32,32a31.68,31.68 0 0 1 -32,32a31.68,31.68 0 0 1 -32,-32c0,-17.952 14.048,-32 32,-32m0,128c52.928,0 96,-43.072 96,-96s-43.072,-96 -96,-96s-96,43.072 -96,96s43.072,96 96,96" fill="#ffffff"/>
 </g>
</svg>